<svg width="400" height="400" viewBox="0 0 400 400" fill="none" xmlns="http://www.w3.org/2000/svg">
<circle cx="200" cy="200" r="191" fill="#191A1F"/>
<mask id="mask0_2_42" style="mask-type:alpha" maskUnits="userSpaceOnUse" x="9" y="9" width="382" height="382">
<circle cx="200" cy="200" r="191" fill="white"/>
</mask>
<g mask="url(#mask0_2_42)">
<g filter="url(#filter0_d_2_42)">
<mask id="path-3-inside-1_2_42" fill="white">
<path fill-rule="evenodd" clip-rule="evenodd" d="M327.059 215.524C331.506 216.366 335.952 217.243 340.39 218.151L311.765 157.839L312.411 212.863C317.288 213.711 322.171 214.598 327.059 215.524ZM64.6204 182.782C63.6979 184.946 62.7839 187.078 61.8829 189.164C60.4787 192.414 59.0034 195.796 57.4562 199.307L60.613 199.104L64.4242 198.872L64.6204 182.782ZM81.4847 141.562C80.4332 144.24 79.2287 147.287 77.8272 150.796C76.2701 154.693 74.5713 158.9 72.7384 163.372L73.1657 198.392C74.9048 198.303 76.6716 198.219 78.4665 198.139C80.2319 198.059 82.0239 197.983 83.8421 197.911L84.4903 144.716C83.8534 144.055 83.2276 143.402 82.6131 142.755L81.4845 141.562H81.4847ZM273.57 139.344C261.95 155.373 250.182 167.99 238.271 177.259C225.714 187.033 212.993 193.088 200.112 195.498L200.089 195.503C195.744 196.211 191.397 196.517 187.042 196.416C182.713 196.318 178.387 195.819 174.058 194.915C169.082 194.913 164.053 194.342 158.954 193.244C153.826 192.137 148.614 190.492 143.297 188.349C134.954 184.981 126.397 180.14 117.648 173.906C109.276 167.941 100.723 160.699 92.0088 152.256L92.5623 197.601C122.443 196.661 152.692 196.995 182.742 198.529C213.147 200.081 243.355 202.862 272.779 206.794L273.57 139.344ZM290.597 113.239C289.522 115.054 288.458 116.822 287.406 118.538C286.081 120.696 284.762 122.799 283.451 124.844L284.433 208.41C287.271 208.822 290.032 209.233 292.717 209.646C295.256 210.034 297.902 210.451 300.655 210.896L301.532 136.279L290.597 113.239ZM283.349 116.216C283.918 115.286 284.479 114.36 285.031 113.438C286.096 111.664 287.141 109.89 288.166 108.12L283.129 97.5042L283.349 116.216ZM191.062 192.675C193.795 192.527 196.521 192.199 199.243 191.69C211.869 189.324 224.387 183.103 236.794 173.023C249.198 162.943 261.49 149.007 273.666 131.217L274.036 99.7176C266.404 116.729 258.435 131.476 250.129 143.954C241.122 157.481 231.717 168.354 221.916 176.565C215.939 181.571 209.809 185.417 203.526 188.281C199.432 190.147 195.278 191.597 191.062 192.675ZM72.6449 155.701C73.6021 153.364 74.5116 151.124 75.3719 148.989C76.8125 145.416 78.1134 142.139 79.271 139.188C77.9507 137.761 76.5873 136.262 75.1817 134.694C74.2287 133.632 73.2847 132.567 72.3495 131.503L72.6449 155.701ZM53.9292 199.55C56.0046 194.858 57.8757 190.587 59.562 186.698C61.3115 182.665 63.0356 178.645 64.7192 174.684L65.265 129.914L16.4484 202.925C22.3072 202.274 28.2494 201.677 34.2666 201.131C40.8432 200.533 47.3996 200.005 53.9292 199.55ZM84.5501 139.848L84.6275 133.501L82.8605 138.045L84.5501 139.848ZM154.987 188.439L155.511 188.577C146.245 184.189 136.939 177.945 127.56 169.809C115.766 159.578 103.845 146.346 91.738 130.037L91.9501 147.424C101.169 156.539 110.175 164.227 118.967 170.483C127.823 176.787 136.462 181.639 144.877 185.033C148.279 186.404 151.648 187.54 154.987 188.439ZM301.658 125.534L302.044 92.6666C300.891 94.8636 299.731 97.0381 298.562 99.1879C296.877 102.286 295.182 105.321 293.477 108.292L301.658 125.534ZM365.207 223.592C370.832 224.912 376.436 226.292 382.014 227.725C380.498 224.986 378.748 221.807 376.753 218.167C374.232 213.563 371.42 208.395 368.379 202.751C361.733 190.416 353.48 175.279 343.619 157.342C334.126 140.067 323.274 120.436 311.067 98.4487L311.632 146.545L346.189 219.356C352.636 220.717 358.978 222.132 365.207 223.592ZM384.623 255.767C381.026 254.311 377.386 252.888 373.708 251.496C354.403 244.187 334.025 237.739 312.639 232.156L313.306 289H299.737L300.441 229.091C297.816 228.456 295.129 227.822 292.376 227.191C289.847 226.612 287.267 226.035 284.633 225.46L285.381 289H271.811L272.588 222.935C245.307 217.454 216.603 213.233 186.592 210.274C156.538 207.311 125.185 205.617 92.6547 205.194L93.3202 259.671H83.0885L83.7546 205.11C82.0098 205.1 80.2627 205.094 78.5148 205.089C76.7626 205.087 75.0063 205.087 73.2473 205.091L73.9139 259.671H63.6823L64.3477 205.141C53.0891 205.245 41.6855 205.498 30.1431 205.896C18.3226 206.303 6.33327 206.87 -5.8186 207.59L-6 205.714C-2.97343 205.295 0.124005 204.886 3.29007 204.486C6.38279 204.096 9.36744 203.734 12.2457 203.4L65.3425 123.528L65.4828 112.025H72.1122L72.2846 126.191C73.8527 128.02 75.3876 129.784 76.8885 131.476C78.1216 132.866 79.3762 134.258 80.6522 135.653C81.5165 133.423 82.2816 131.425 82.9414 129.682C83.6621 127.78 84.2657 126.158 84.7321 124.893L84.889 112.025H91.5184L91.6647 124.033C105.491 143.233 119.15 158.42 132.641 169.586C146.099 180.727 159.379 187.854 172.478 190.963C174.3 190.987 176.129 190.934 177.959 190.8C179.819 190.667 181.659 190.449 183.479 190.154C189.624 189.152 195.646 187.217 201.54 184.353C207.444 181.487 213.225 177.682 218.883 172.945C228.911 164.543 238.536 153.221 247.754 138.977C256.968 124.741 265.777 107.588 274.18 87.5169L274.348 73H282.841L282.997 86.213L291.02 103.116C292.758 100.024 294.486 96.8615 296.205 93.6337C298.202 89.8864 300.191 86.0447 302.169 82.1085L302.276 73H310.767L310.95 88.5251C324.747 113.356 336.72 134.998 346.867 153.449C357.145 172.138 365.704 187.827 372.539 200.515C375.853 206.666 378.766 212.169 381.275 217.019C383.67 221.649 385.696 225.682 387.347 229.115C393.991 230.873 400.545 232.702 407 234.602L384.623 255.767Z"/>
</mask>
<path fill-rule="evenodd" clip-rule="evenodd" d="M327.059 215.524C331.506 216.366 335.952 217.243 340.39 218.151L311.765 157.839L312.411 212.863C317.288 213.711 322.171 214.598 327.059 215.524ZM64.6204 182.782C63.6979 184.946 62.7839 187.078 61.8829 189.164C60.4787 192.414 59.0034 195.796 57.4562 199.307L60.613 199.104L64.4242 198.872L64.6204 182.782ZM81.4847 141.562C80.4332 144.24 79.2287 147.287 77.8272 150.796C76.2701 154.693 74.5713 158.9 72.7384 163.372L73.1657 198.392C74.9048 198.303 76.6716 198.219 78.4665 198.139C80.2319 198.059 82.0239 197.983 83.8421 197.911L84.4903 144.716C83.8534 144.055 83.2276 143.402 82.6131 142.755L81.4845 141.562H81.4847ZM273.57 139.344C261.95 155.373 250.182 167.99 238.271 177.259C225.714 187.033 212.993 193.088 200.112 195.498L200.089 195.503C195.744 196.211 191.397 196.517 187.042 196.416C182.713 196.318 178.387 195.819 174.058 194.915C169.082 194.913 164.053 194.342 158.954 193.244C153.826 192.137 148.614 190.492 143.297 188.349C134.954 184.981 126.397 180.14 117.648 173.906C109.276 167.941 100.723 160.699 92.0088 152.256L92.5623 197.601C122.443 196.661 152.692 196.995 182.742 198.529C213.147 200.081 243.355 202.862 272.779 206.794L273.57 139.344ZM290.597 113.239C289.522 115.054 288.458 116.822 287.406 118.538C286.081 120.696 284.762 122.799 283.451 124.844L284.433 208.41C287.271 208.822 290.032 209.233 292.717 209.646C295.256 210.034 297.902 210.451 300.655 210.896L301.532 136.279L290.597 113.239ZM283.349 116.216C283.918 115.286 284.479 114.36 285.031 113.438C286.096 111.664 287.141 109.89 288.166 108.12L283.129 97.5042L283.349 116.216ZM191.062 192.675C193.795 192.527 196.521 192.199 199.243 191.69C211.869 189.324 224.387 183.103 236.794 173.023C249.198 162.943 261.49 149.007 273.666 131.217L274.036 99.7176C266.404 116.729 258.435 131.476 250.129 143.954C241.122 157.481 231.717 168.354 221.916 176.565C215.939 181.571 209.809 185.417 203.526 188.281C199.432 190.147 195.278 191.597 191.062 192.675ZM72.6449 155.701C73.6021 153.364 74.5116 151.124 75.3719 148.989C76.8125 145.416 78.1134 142.139 79.271 139.188C77.9507 137.761 76.5873 136.262 75.1817 134.694C74.2287 133.632 73.2847 132.567 72.3495 131.503L72.6449 155.701ZM53.9292 199.55C56.0046 194.858 57.8757 190.587 59.562 186.698C61.3115 182.665 63.0356 178.645 64.7192 174.684L65.265 129.914L16.4484 202.925C22.3072 202.274 28.2494 201.677 34.2666 201.131C40.8432 200.533 47.3996 200.005 53.9292 199.55ZM84.5501 139.848L84.6275 133.501L82.8605 138.045L84.5501 139.848ZM154.987 188.439L155.511 188.577C146.245 184.189 136.939 177.945 127.56 169.809C115.766 159.578 103.845 146.346 91.738 130.037L91.9501 147.424C101.169 156.539 110.175 164.227 118.967 170.483C127.823 176.787 136.462 181.639 144.877 185.033C148.279 186.404 151.648 187.54 154.987 188.439ZM301.658 125.534L302.044 92.6666C300.891 94.8636 299.731 97.0381 298.562 99.1879C296.877 102.286 295.182 105.321 293.477 108.292L301.658 125.534ZM365.207 223.592C370.832 224.912 376.436 226.292 382.014 227.725C380.498 224.986 378.748 221.807 376.753 218.167C374.232 213.563 371.42 208.395 368.379 202.751C361.733 190.416 353.48 175.279 343.619 157.342C334.126 140.067 323.274 120.436 311.067 98.4487L311.632 146.545L346.189 219.356C352.636 220.717 358.978 222.132 365.207 223.592ZM384.623 255.767C381.026 254.311 377.386 252.888 373.708 251.496C354.403 244.187 334.025 237.739 312.639 232.156L313.306 289H299.737L300.441 229.091C297.816 228.456 295.129 227.822 292.376 227.191C289.847 226.612 287.267 226.035 284.633 225.46L285.381 289H271.811L272.588 222.935C245.307 217.454 216.603 213.233 186.592 210.274C156.538 207.311 125.185 205.617 92.6547 205.194L93.3202 259.671H83.0885L83.7546 205.11C82.0098 205.1 80.2627 205.094 78.5148 205.089C76.7626 205.087 75.0063 205.087 73.2473 205.091L73.9139 259.671H63.6823L64.3477 205.141C53.0891 205.245 41.6855 205.498 30.1431 205.896C18.3226 206.303 6.33327 206.87 -5.8186 207.59L-6 205.714C-2.97343 205.295 0.124005 204.886 3.29007 204.486C6.38279 204.096 9.36744 203.734 12.2457 203.4L65.3425 123.528L65.4828 112.025H72.1122L72.2846 126.191C73.8527 128.02 75.3876 129.784 76.8885 131.476C78.1216 132.866 79.3762 134.258 80.6522 135.653C81.5165 133.423 82.2816 131.425 82.9414 129.682C83.6621 127.78 84.2657 126.158 84.7321 124.893L84.889 112.025H91.5184L91.6647 124.033C105.491 143.233 119.15 158.42 132.641 169.586C146.099 180.727 159.379 187.854 172.478 190.963C174.3 190.987 176.129 190.934 177.959 190.8C179.819 190.667 181.659 190.449 183.479 190.154C189.624 189.152 195.646 187.217 201.54 184.353C207.444 181.487 213.225 177.682 218.883 172.945C228.911 164.543 238.536 153.221 247.754 138.977C256.968 124.741 265.777 107.588 274.18 87.5169L274.348 73H282.841L282.997 86.213L291.02 103.116C292.758 100.024 294.486 96.8615 296.205 93.6337C298.202 89.8864 300.191 86.0447 302.169 82.1085L302.276 73H310.767L310.95 88.5251C324.747 113.356 336.72 134.998 346.867 153.449C357.145 172.138 365.704 187.827 372.539 200.515C375.853 206.666 378.766 212.169 381.275 217.019C383.67 221.649 385.696 225.682 387.347 229.115C393.991 230.873 400.545 232.702 407 234.602L384.623 255.767Z" stroke="url(#paint0_linear_2_42)" stroke-width="14" shape-rendering="crispEdges" mask="url(#path-3-inside-1_2_42)"/>
</g>
</g>
<circle cx="200.5" cy="200.5" r="180.5" stroke="#191A1F" stroke-width="30"/>
<circle cx="200.5" cy="200.5" r="177" stroke="url(#paint1_linear_2_42)" stroke-width="7"/>
<defs>
<filter id="filter0_d_2_42" x="-20" y="63" width="441" height="244" filterUnits="userSpaceOnUse" color-interpolation-filters="sRGB">
<feFlood flood-opacity="0" result="BackgroundImageFix"/>
<feColorMatrix in="SourceAlpha" type="matrix" values="0 0 0 0 0 0 0 0 0 0 0 0 0 0 0 0 0 0 127 0" result="hardAlpha"/>
<feOffset dy="4"/>
<feGaussianBlur stdDeviation="7"/>
<feComposite in2="hardAlpha" operator="out"/>
<feColorMatrix type="matrix" values="0 0 0 0 0.521569 0 0 0 0 0.45098 0 0 0 0 0.776471 0 0 0 0.28 0"/>
<feBlend mode="normal" in2="BackgroundImageFix" result="effect1_dropShadow_2_42"/>
<feBlend mode="normal" in="SourceGraphic" in2="effect1_dropShadow_2_42" result="shape"/>
</filter>
<linearGradient id="paint0_linear_2_42" x1="200.5" y1="289" x2="267.5" y2="95" gradientUnits="userSpaceOnUse">
<stop stop-color="#8573C6"/>
<stop offset="0.445" stop-color="#E3946E"/>
<stop offset="1" stop-color="#237556"/>
</linearGradient>
<linearGradient id="paint1_linear_2_42" x1="200.5" y1="20" x2="200.5" y2="381" gradientUnits="userSpaceOnUse">
<stop stop-color="#8573C6"/>
<stop offset="0.445" stop-color="#E3946E"/>
<stop offset="1" stop-color="#237556"/>
</linearGradient>
</defs>
</svg>
